<svg width="57" height="44" viewBox="0 0 57 44" fill="none" xmlns="http://www.w3.org/2000/svg">
<path d="M32.7393 43.1327L29.5635 35.1067H13.7424L10.7399 43.1327H0L17.1491 2.25191H26.7342L43.7101 43.1327H32.7393ZM21.7684 13.165L16.5717 27.1961H26.8497L21.7684 13.165Z" fill="white"/>
<path d="M56.8471 5.19671C56.8471 5.9281 56.6931 6.62099 56.3852 7.27539C56.1157 7.8913 55.7308 8.43022 55.2304 8.89215C54.7684 9.35408 54.191 9.71977 53.4981 9.98923C52.8437 10.2587 52.1508 10.3934 51.4194 10.3934C49.8797 10.3934 48.5901 9.89299 47.5508 8.89215C46.5114 7.85281 45.9918 6.62099 45.9918 5.19671C45.9918 4.50382 46.1265 3.84941 46.396 3.23351C46.6654 2.57911 47.0504 2.02094 47.5508 1.55901C48.0512 1.09708 48.6286 0.731388 49.283 0.461931C49.9374 0.153977 50.6496 0 51.4194 0C52.1508 0 52.8437 0.13473 53.4981 0.40419C54.191 0.673648 54.7684 1.03934 55.2304 1.50127C55.7308 1.9632 56.1157 2.52137 56.3852 3.17577C56.6931 3.79167 56.8471 4.46532 56.8471 5.19671ZM46.6847 43.1327V14.3776H56.1542V43.1327H46.6847Z" fill="white"/>
</svg>
