<svg width="23" height="23" viewBox="0 0 23 23" fill="none" xmlns="http://www.w3.org/2000/svg">
<path d="M17.7822 0.517578C19.7902 0.329313 21.8126 1.65976 22.3467 3.64648C22.8032 5.34286 22.1797 6.62311 21.292 7.67676C20.8555 8.19486 20.3432 8.67297 19.8594 9.12402C19.4328 9.52173 19.0303 9.89938 18.6807 10.2852C18.685 10.2997 18.6892 10.3153 18.6943 10.332C18.7179 10.4087 18.7535 10.5182 18.7773 10.6426L18.7969 10.7705V10.7715C19.0433 13.1515 16.4475 14.731 14.5498 13.374L8.34766 19.6045L8.3291 19.624L8.30859 19.6406C8.03413 19.8629 7.69042 20.1038 7.27246 20.2256L7.27148 20.2246C7.10342 20.2738 6.88612 20.2934 6.75488 20.3057C6.67617 20.313 6.61504 20.3187 6.56738 20.3252C6.53237 20.3553 6.48666 20.3999 6.42871 20.457C6.31025 20.5738 6.16529 20.7271 6.01172 20.8916C5.72419 21.1997 5.37397 21.583 5.19336 21.7383C3.90365 22.8484 2.31074 22.6437 1.35254 21.7695C0.874818 21.3337 0.548047 20.7263 0.504883 20.0342C0.461445 19.3367 0.708068 18.6014 1.29004 17.9189C1.44338 17.7388 1.8273 17.3872 2.13477 17.0977C2.29897 16.943 2.45196 16.7967 2.56836 16.6777C2.6268 16.618 2.67129 16.5704 2.70117 16.5352L2.70215 16.5332C2.70313 16.5275 2.70491 16.5211 2.70605 16.5137C2.71446 16.4592 2.72264 16.3912 2.73242 16.3057C2.74908 16.1599 2.77411 15.9281 2.83008 15.752L2.875 15.6211C2.98972 15.3227 3.15812 15.0665 3.32617 14.8467L3.3457 14.8213L3.36914 14.7979L9.59961 8.54199C8.80881 7.31764 8.95586 5.72689 10.1514 4.75879L10.3213 4.63184C11.0792 4.11263 11.9287 4.12471 12.6934 4.31055L15.5029 1.49316L15.5205 1.47559L15.54 1.45996C16.1708 0.942695 16.9462 0.595994 17.7822 0.517578ZM7.6084 13.9951H10.5156L12.7432 11.748L11.2891 10.2881L7.6084 13.9951Z" fill="#2C2C2C" stroke="#F9F9F9"/>
</svg>
