<svg width="519" height="133" viewBox="0 0 519 133" fill="none" xmlns="http://www.w3.org/2000/svg">
<path d="M1.79913 4.6165C1.62835 4.22238 1.58002 3.78602 1.6604 3.36408C1.74079 2.94214 1.94618 2.55411 2.2499 2.25039C2.55362 1.94666 2.94165 1.74128 3.36359 1.66089C3.78553 1.58051 4.22189 1.62884 4.61601 1.79961L73.8482 29.9252C74.2691 30.0967 74.6254 30.3964 74.8664 30.7819C75.1073 31.1673 75.2208 31.6188 75.1906 32.0724C75.1604 32.526 74.9882 32.9585 74.6983 33.3086C74.4084 33.6587 74.0155 33.9086 73.5756 34.0229L47.077 40.8595C45.5798 41.2444 44.213 42.0234 43.1188 43.1153C42.0245 44.2073 41.2428 45.5724 40.8547 47.0688L34.0224 73.5761C33.9081 74.016 33.6582 74.4089 33.3081 74.6988C32.958 74.9887 32.5255 75.1609 32.0719 75.1911C31.6183 75.2213 31.1668 75.1078 30.7814 74.8669C30.3959 74.6259 30.0962 74.2696 29.9247 73.8487L1.79913 4.6165Z" fill="#D6B67C" stroke="#2D2D2D" stroke-width="3.24526" stroke-linecap="round" stroke-linejoin="round"/>
<rect x="56.1953" y="55.1953" width="462" height="77" rx="6.74503" fill="#2D2D2D"/>
<path d="M94.7047 106.195H90.8367V81.9325H81.9677V78.5333H103.574V81.9325H94.7047V106.195ZM110.206 90.4889C110.649 89.5773 111.404 88.7959 112.472 88.1447C113.54 87.4935 114.738 87.1679 116.067 87.1679C117.265 87.1679 118.294 87.3763 119.153 87.7931C120.013 88.1838 120.729 88.7177 121.302 89.395C121.875 90.0722 122.292 90.8666 122.553 91.7783C122.839 92.6899 122.982 93.6667 122.982 94.7086V106.195H119.31V95.9588C119.31 95.2035 119.245 94.4872 119.114 93.8099C119.01 93.1327 118.802 92.5336 118.489 92.0127C118.177 91.4918 117.747 91.075 117.2 90.7624C116.679 90.4499 115.989 90.2936 115.129 90.2936C113.67 90.2936 112.472 90.8536 111.535 91.9736C110.597 93.0676 110.128 94.5393 110.128 96.3886V106.195H106.455V76.658H110.128V90.4889H110.206ZM140.72 94.2006C140.72 92.8202 140.303 91.8043 139.469 91.1531C138.636 90.4759 137.529 90.1373 136.148 90.1373C135.107 90.1373 134.117 90.3457 133.179 90.7624C132.267 91.1531 131.499 91.6611 130.874 92.2862L128.92 89.942C129.832 89.0824 130.939 88.4052 132.241 87.9103C133.57 87.4154 134.989 87.1679 136.5 87.1679C137.829 87.1679 138.975 87.3633 139.938 87.754C140.928 88.1187 141.736 88.6266 142.361 89.2778C142.986 89.9289 143.455 90.6973 143.767 91.5829C144.08 92.4685 144.236 93.4192 144.236 94.4351V102.523C144.236 103.148 144.249 103.812 144.275 104.515C144.327 105.193 144.405 105.753 144.51 106.195H141.189C140.98 105.31 140.876 104.424 140.876 103.539H140.759C140.082 104.528 139.222 105.297 138.18 105.844C137.164 106.391 135.953 106.664 134.547 106.664C133.817 106.664 133.049 106.56 132.241 106.352C131.46 106.169 130.744 105.857 130.093 105.414C129.441 104.971 128.894 104.385 128.452 103.656C128.035 102.926 127.826 102.028 127.826 100.96C127.826 99.5533 128.204 98.4463 128.959 97.6389C129.715 96.8054 130.705 96.1802 131.929 95.7635C133.153 95.3207 134.534 95.0342 136.07 94.9039C137.607 94.7737 139.157 94.7086 140.72 94.7086V94.2006ZM139.821 97.3654C138.909 97.3654 137.959 97.4044 136.969 97.4826C136.005 97.5607 135.12 97.717 134.312 97.9514C133.531 98.1858 132.88 98.5375 132.359 99.0063C131.838 99.4752 131.577 100.1 131.577 100.882C131.577 101.429 131.681 101.885 131.89 102.249C132.124 102.614 132.424 102.913 132.788 103.148C133.153 103.382 133.557 103.552 134 103.656C134.442 103.734 134.898 103.773 135.367 103.773C137.086 103.773 138.402 103.265 139.313 102.249C140.251 101.207 140.72 99.9049 140.72 98.3421V97.3654H139.821ZM153.691 87.6759C153.743 88.1447 153.782 88.6787 153.808 89.2778C153.834 89.8508 153.847 90.3327 153.847 90.7234H153.964C154.199 90.2285 154.511 89.7726 154.902 89.3559C155.319 88.9131 155.788 88.5354 156.309 88.2228C156.83 87.8842 157.403 87.6238 158.028 87.4414C158.653 87.2591 159.304 87.1679 159.981 87.1679C161.179 87.1679 162.208 87.3763 163.068 87.7931C163.927 88.1838 164.644 88.7177 165.217 89.395C165.79 90.0722 166.206 90.8666 166.467 91.7783C166.753 92.6899 166.897 93.6667 166.897 94.7086V106.195H163.224V95.9198C163.224 95.1644 163.159 94.4481 163.029 93.7709C162.925 93.0936 162.716 92.4946 162.404 91.9736C162.091 91.4527 161.661 91.0359 161.114 90.7234C160.567 90.4108 159.864 90.2545 159.004 90.2545C157.546 90.2545 156.348 90.8145 155.41 91.9346C154.498 93.0285 154.042 94.5002 154.042 96.3495V106.195H150.37V91.6611C150.37 91.1662 150.357 90.528 150.331 89.7466C150.305 88.9652 150.266 88.2749 150.214 87.6759H153.691ZM176.861 95.7244H176.978L184.753 87.6759H189.676L181.002 96.076L190.418 106.195H185.339L176.978 96.584H176.861V106.195H173.188V76.658H176.861V95.7244ZM203.487 92.3643C203.07 91.6871 202.484 91.1401 201.729 90.7234C200.973 90.2806 200.127 90.0592 199.189 90.0592C198.772 90.0592 198.356 90.1113 197.939 90.2154C197.522 90.2936 197.144 90.4368 196.806 90.6452C196.493 90.8276 196.233 91.075 196.024 91.3876C195.842 91.6741 195.751 92.0387 195.751 92.4815C195.751 93.263 196.103 93.849 196.806 94.2397C197.509 94.6044 198.564 94.943 199.971 95.2556C200.856 95.4639 201.677 95.7114 202.432 95.9979C203.187 96.2844 203.839 96.6491 204.386 97.0919C204.959 97.5086 205.401 98.0165 205.714 98.6156C206.027 99.2147 206.183 99.918 206.183 100.725C206.183 101.819 205.974 102.744 205.558 103.499C205.141 104.255 204.581 104.88 203.878 105.375C203.2 105.844 202.419 106.182 201.533 106.391C200.648 106.599 199.736 106.703 198.798 106.703C197.392 106.703 196.011 106.43 194.657 105.883C193.329 105.336 192.222 104.502 191.336 103.382L193.954 101.155C194.449 101.885 195.126 102.497 195.985 102.992C196.871 103.486 197.835 103.734 198.877 103.734C199.345 103.734 199.788 103.695 200.205 103.617C200.648 103.512 201.038 103.356 201.377 103.148C201.742 102.939 202.028 102.666 202.237 102.327C202.445 101.989 202.549 101.559 202.549 101.038C202.549 100.178 202.132 99.5403 201.299 99.1235C200.492 98.7068 199.293 98.3161 197.704 97.9514C197.079 97.7951 196.441 97.6128 195.79 97.4044C195.165 97.17 194.592 96.8574 194.071 96.4667C193.55 96.076 193.12 95.5942 192.782 95.0211C192.469 94.422 192.313 93.6927 192.313 92.8332C192.313 91.8434 192.508 90.9969 192.899 90.2936C193.316 89.5643 193.85 88.9782 194.501 88.5354C195.152 88.0666 195.894 87.728 196.728 87.5196C197.561 87.2852 198.421 87.1679 199.306 87.1679C200.635 87.1679 201.911 87.4284 203.135 87.9494C204.386 88.4703 205.349 89.2257 206.027 90.2154L203.487 92.3643ZM229.326 90.6843H225.028V106.195H221.355V90.6843H217.683V87.6759H221.355V83.8079C221.355 82.7139 221.472 81.7111 221.707 80.7994C221.967 79.8617 222.371 79.0543 222.918 78.3771C223.491 77.6998 224.207 77.1659 225.067 76.7752C225.953 76.3845 227.021 76.1891 228.271 76.1891C229.156 76.1891 229.925 76.2803 230.576 76.4626L230.146 79.6273C229.86 79.5492 229.573 79.4841 229.287 79.432C229 79.3799 228.675 79.3538 228.31 79.3538C227.607 79.3538 227.034 79.4841 226.591 79.7445C226.174 79.979 225.848 80.3045 225.614 80.7213C225.38 81.138 225.223 81.6199 225.145 82.1669C225.067 82.6878 225.028 83.2348 225.028 83.8079V87.6759H229.326V90.6843ZM251.462 96.8965C251.462 98.3291 251.201 99.6445 250.681 100.843C250.186 102.041 249.482 103.083 248.571 103.968C247.685 104.828 246.63 105.505 245.406 106C244.182 106.469 242.866 106.703 241.46 106.703C240.053 106.703 238.738 106.469 237.514 106C236.29 105.505 235.235 104.828 234.349 103.968C233.463 103.083 232.76 102.041 232.239 100.843C231.744 99.6445 231.497 98.3291 231.497 96.8965C231.497 95.4639 231.744 94.1616 232.239 92.9895C232.76 91.7913 233.463 90.7624 234.349 89.9029C235.235 89.0433 236.29 88.3791 237.514 87.9103C238.738 87.4154 240.053 87.1679 241.46 87.1679C242.866 87.1679 244.182 87.4154 245.406 87.9103C246.63 88.3791 247.685 89.0433 248.571 89.9029C249.482 90.7624 250.186 91.7913 250.681 92.9895C251.201 94.1616 251.462 95.4639 251.462 96.8965ZM247.633 96.8965C247.633 96.0109 247.49 95.1644 247.203 94.3569C246.943 93.5495 246.552 92.8462 246.031 92.2471C245.51 91.622 244.859 91.1271 244.078 90.7624C243.322 90.3978 242.45 90.2154 241.46 90.2154C240.47 90.2154 239.584 90.3978 238.803 90.7624C238.048 91.1271 237.41 91.622 236.889 92.2471C236.368 92.8462 235.964 93.5495 235.677 94.3569C235.417 95.1644 235.287 96.0109 235.287 96.8965C235.287 97.7821 235.417 98.6286 235.677 99.4361C235.964 100.244 236.368 100.96 236.889 101.585C237.41 102.21 238.048 102.705 238.803 103.07C239.584 103.434 240.47 103.617 241.46 103.617C242.45 103.617 243.322 103.434 244.078 103.07C244.859 102.705 245.51 102.21 246.031 101.585C246.552 100.96 246.943 100.244 247.203 99.4361C247.49 98.6286 247.633 97.7821 247.633 96.8965ZM256.555 91.6611C256.555 91.1662 256.542 90.528 256.516 89.7466C256.49 88.9652 256.451 88.2749 256.399 87.6759H259.876C259.928 88.1447 259.967 88.6917 259.993 89.3168C260.019 89.9159 260.032 90.4108 260.032 90.8015H260.149C260.67 89.7075 261.426 88.835 262.415 88.1838C263.431 87.5066 264.564 87.1679 265.815 87.1679C266.388 87.1679 266.869 87.22 267.26 87.3242L267.104 90.7234C266.583 90.5931 266.023 90.528 265.424 90.528C264.538 90.528 263.77 90.6973 263.119 91.0359C262.468 91.3485 261.921 91.7783 261.478 92.3253C261.061 92.8722 260.748 93.5104 260.54 94.2397C260.332 94.943 260.227 95.6853 260.227 96.4667V106.195H256.555V91.6611ZM290.48 92.3643C290.063 91.6871 289.477 91.1401 288.722 90.7234C287.966 90.2806 287.12 90.0592 286.182 90.0592C285.765 90.0592 285.349 90.1113 284.932 90.2154C284.515 90.2936 284.138 90.4368 283.799 90.6452C283.486 90.8276 283.226 91.075 283.018 91.3876C282.835 91.6741 282.744 92.0387 282.744 92.4815C282.744 93.263 283.096 93.849 283.799 94.2397C284.502 94.6044 285.557 94.943 286.964 95.2556C287.849 95.4639 288.67 95.7114 289.425 95.9979C290.18 96.2844 290.832 96.6491 291.379 97.0919C291.952 97.5086 292.394 98.0165 292.707 98.6156C293.02 99.2147 293.176 99.918 293.176 100.725C293.176 101.819 292.967 102.744 292.551 103.499C292.134 104.255 291.574 104.88 290.871 105.375C290.193 105.844 289.412 106.182 288.526 106.391C287.641 106.599 286.729 106.703 285.792 106.703C284.385 106.703 283.004 106.43 281.65 105.883C280.322 105.336 279.215 104.502 278.329 103.382L280.947 101.155C281.442 101.885 282.119 102.497 282.978 102.992C283.864 103.486 284.828 103.734 285.87 103.734C286.339 103.734 286.781 103.695 287.198 103.617C287.641 103.512 288.032 103.356 288.37 103.148C288.735 102.939 289.021 102.666 289.23 102.327C289.438 101.989 289.542 101.559 289.542 101.038C289.542 100.178 289.126 99.5403 288.292 99.1235C287.485 98.7068 286.286 98.3161 284.698 97.9514C284.072 97.7951 283.434 97.6128 282.783 97.4044C282.158 97.17 281.585 96.8574 281.064 96.4667C280.543 96.076 280.113 95.5942 279.775 95.0211C279.462 94.422 279.306 93.6927 279.306 92.8332C279.306 91.8434 279.501 90.9969 279.892 90.2936C280.309 89.5643 280.843 88.9782 281.494 88.5354C282.145 88.0666 282.887 87.728 283.721 87.5196C284.554 87.2852 285.414 87.1679 286.299 87.1679C287.628 87.1679 288.904 87.4284 290.128 87.9494C291.379 88.4703 292.342 89.2257 293.02 90.2154L290.48 92.3643ZM306.903 90.6843H301.98V100.335C301.98 101.455 302.188 102.262 302.605 102.757C303.022 103.226 303.686 103.46 304.598 103.46C304.936 103.46 305.301 103.421 305.692 103.343C306.082 103.265 306.434 103.148 306.746 102.992L306.864 106C306.421 106.156 305.926 106.273 305.379 106.352C304.858 106.456 304.311 106.508 303.738 106.508C301.993 106.508 300.651 106.026 299.714 105.062C298.802 104.099 298.346 102.653 298.346 100.725V90.6843H294.791V87.6759H298.346V82.3623H301.98V87.6759H306.903V90.6843ZM329.45 96.8965C329.45 98.3291 329.19 99.6445 328.669 100.843C328.174 102.041 327.471 103.083 326.559 103.968C325.674 104.828 324.619 105.505 323.395 106C322.17 106.469 320.855 106.703 319.448 106.703C318.042 106.703 316.726 106.469 315.502 106C314.278 105.505 313.223 104.828 312.338 103.968C311.452 103.083 310.749 102.041 310.228 100.843C309.733 99.6445 309.485 98.3291 309.485 96.8965C309.485 95.4639 309.733 94.1616 310.228 92.9895C310.749 91.7913 311.452 90.7624 312.338 89.9029C313.223 89.0433 314.278 88.3791 315.502 87.9103C316.726 87.4154 318.042 87.1679 319.448 87.1679C320.855 87.1679 322.17 87.4154 323.395 87.9103C324.619 88.3791 325.674 89.0433 326.559 89.9029C327.471 90.7624 328.174 91.7913 328.669 92.9895C329.19 94.1616 329.45 95.4639 329.45 96.8965ZM325.622 96.8965C325.622 96.0109 325.478 95.1644 325.192 94.3569C324.931 93.5495 324.541 92.8462 324.02 92.2471C323.499 91.622 322.848 91.1271 322.066 90.7624C321.311 90.3978 320.438 90.2154 319.448 90.2154C318.459 90.2154 317.573 90.3978 316.792 90.7624C316.036 91.1271 315.398 91.622 314.877 92.2471C314.356 92.8462 313.952 93.5495 313.666 94.3569C313.405 95.1644 313.275 96.0109 313.275 96.8965C313.275 97.7821 313.405 98.6286 313.666 99.4361C313.952 100.244 314.356 100.96 314.877 101.585C315.398 102.21 316.036 102.705 316.792 103.07C317.573 103.434 318.459 103.617 319.448 103.617C320.438 103.617 321.311 103.434 322.066 103.07C322.848 102.705 323.499 102.21 324.02 101.585C324.541 100.96 324.931 100.244 325.192 99.4361C325.478 98.6286 325.622 97.7821 325.622 96.8965ZM338.216 115.572H334.543V87.6759H338.138V90.5671H338.255C338.854 89.5773 339.727 88.7698 340.873 88.1447C342.045 87.4935 343.399 87.1679 344.936 87.1679C346.317 87.1679 347.567 87.4154 348.687 87.9103C349.833 88.4052 350.81 89.0954 351.617 89.981C352.451 90.8666 353.089 91.9085 353.532 93.1067C353.974 94.2788 354.196 95.5421 354.196 96.8965C354.196 98.251 353.974 99.5273 353.532 100.725C353.089 101.924 352.464 102.965 351.656 103.851C350.849 104.737 349.872 105.44 348.726 105.961C347.58 106.456 346.291 106.703 344.858 106.703C343.53 106.703 342.279 106.417 341.107 105.844C339.935 105.271 339.01 104.463 338.333 103.421H338.216V115.572ZM350.406 96.8965C350.406 96.037 350.276 95.2035 350.015 94.396C349.755 93.5885 349.364 92.8722 348.843 92.2471C348.322 91.622 347.671 91.1271 346.89 90.7624C346.134 90.3978 345.249 90.2154 344.233 90.2154C343.295 90.2154 342.436 90.3978 341.654 90.7624C340.899 91.1271 340.248 91.622 339.701 92.2471C339.154 92.8722 338.724 93.5885 338.411 94.396C338.125 95.2035 337.982 96.05 337.982 96.9356C337.982 97.8212 338.125 98.6677 338.411 99.4752C338.724 100.283 339.154 100.999 339.701 101.624C340.248 102.223 340.899 102.705 341.654 103.07C342.436 103.434 343.295 103.617 344.233 103.617C345.249 103.617 346.134 103.434 346.89 103.07C347.671 102.679 348.322 102.171 348.843 101.546C349.364 100.921 349.755 100.204 350.015 99.397C350.276 98.5896 350.406 97.7561 350.406 96.8965ZM362.978 115.572H359.306V87.6759H362.9V90.5671H363.018C363.617 89.5773 364.489 88.7698 365.635 88.1447C366.807 87.4935 368.162 87.1679 369.699 87.1679C371.079 87.1679 372.329 87.4154 373.449 87.9103C374.595 88.4052 375.572 89.0954 376.38 89.981C377.213 90.8666 377.851 91.9085 378.294 93.1067C378.737 94.2788 378.958 95.5421 378.958 96.8965C378.958 98.251 378.737 99.5273 378.294 100.725C377.851 101.924 377.226 102.965 376.419 103.851C375.611 104.737 374.635 105.44 373.488 105.961C372.342 106.456 371.053 106.703 369.62 106.703C368.292 106.703 367.042 106.417 365.87 105.844C364.698 105.271 363.773 104.463 363.096 103.421H362.978V115.572ZM375.169 96.8965C375.169 96.037 375.038 95.2035 374.778 94.396C374.517 93.5885 374.127 92.8722 373.606 92.2471C373.085 91.622 372.434 91.1271 371.652 90.7624C370.897 90.3978 370.011 90.2154 368.995 90.2154C368.058 90.2154 367.198 90.3978 366.417 90.7624C365.661 91.1271 365.01 91.622 364.463 92.2471C363.916 92.8722 363.486 93.5885 363.174 94.396C362.887 95.2035 362.744 96.05 362.744 96.9356C362.744 97.8212 362.887 98.6677 363.174 99.4752C363.486 100.283 363.916 100.999 364.463 101.624C365.01 102.223 365.661 102.705 366.417 103.07C367.198 103.434 368.058 103.617 368.995 103.617C370.011 103.617 370.897 103.434 371.652 103.07C372.434 102.679 373.085 102.171 373.606 101.546C374.127 100.921 374.517 100.204 374.778 99.397C375.038 98.5896 375.169 97.7561 375.169 96.8965ZM387.78 106.195H384.107V87.6759H387.78V106.195ZM388.405 80.9948C388.405 81.672 388.158 82.232 387.663 82.6748C387.194 83.1176 386.621 83.339 385.944 83.339C385.267 83.339 384.694 83.1176 384.225 82.6748C383.756 82.206 383.521 81.646 383.521 80.9948C383.521 80.3176 383.756 79.7576 384.225 79.3148C384.694 78.8459 385.267 78.6115 385.944 78.6115C386.621 78.6115 387.194 78.8459 387.663 79.3148C388.158 79.7576 388.405 80.3176 388.405 80.9948ZM397.5 87.6759C397.552 88.1447 397.592 88.6787 397.618 89.2778C397.644 89.8508 397.657 90.3327 397.657 90.7234H397.774C398.008 90.2285 398.321 89.7726 398.712 89.3559C399.128 88.9131 399.597 88.5354 400.118 88.2228C400.639 87.8842 401.212 87.6238 401.837 87.4414C402.462 87.2591 403.114 87.1679 403.791 87.1679C404.989 87.1679 406.018 87.3763 406.877 87.7931C407.737 88.1838 408.453 88.7177 409.026 89.395C409.599 90.0722 410.016 90.8666 410.276 91.7783C410.563 92.6899 410.706 93.6667 410.706 94.7086V106.195H407.034V95.9198C407.034 95.1644 406.968 94.4481 406.838 93.7709C406.734 93.0936 406.526 92.4946 406.213 91.9736C405.901 91.4527 405.471 91.0359 404.924 90.7234C404.377 90.4108 403.674 90.2545 402.814 90.2545C401.355 90.2545 400.157 90.8145 399.22 91.9346C398.308 93.0285 397.852 94.5002 397.852 96.3495V106.195H394.179V91.6611C394.179 91.1662 394.166 90.528 394.14 89.7466C394.114 88.9652 394.075 88.2749 394.023 87.6759H397.5ZM418.365 109.36C419.173 110.272 420.176 111.001 421.374 111.548C422.598 112.095 423.848 112.368 425.125 112.368C426.349 112.368 427.378 112.186 428.211 111.821C429.045 111.483 429.709 111.001 430.204 110.376C430.725 109.777 431.089 109.06 431.298 108.227C431.532 107.393 431.649 106.495 431.649 105.531V103.148H431.571C430.894 104.19 429.969 104.984 428.797 105.531C427.625 106.078 426.375 106.352 425.046 106.352C423.64 106.352 422.351 106.104 421.178 105.609C420.032 105.114 419.056 104.437 418.248 103.578C417.441 102.718 416.816 101.715 416.373 100.569C415.93 99.397 415.709 98.1468 415.709 96.8184C415.709 95.49 415.93 94.2397 416.373 93.0676C416.816 91.8955 417.441 90.8796 418.248 90.0201C419.056 89.1345 420.032 88.4442 421.178 87.9494C422.324 87.4284 423.601 87.1679 425.007 87.1679C426.336 87.1679 427.599 87.4545 428.797 88.0275C430.021 88.6005 430.985 89.4731 431.688 90.6452H431.767V87.6759H435.322V105.258C435.322 106.612 435.153 107.901 434.814 109.126C434.475 110.376 433.902 111.47 433.095 112.408C432.287 113.371 431.233 114.14 429.93 114.713C428.628 115.286 427.013 115.572 425.085 115.572C423.471 115.572 421.843 115.273 420.202 114.674C418.587 114.101 417.193 113.28 416.021 112.212L418.365 109.36ZM419.498 96.7402C419.498 97.5998 419.629 98.4203 419.889 99.2017C420.176 99.9831 420.579 100.673 421.1 101.272C421.647 101.872 422.298 102.353 423.054 102.718C423.809 103.083 424.669 103.265 425.632 103.265C426.57 103.265 427.43 103.096 428.211 102.757C428.992 102.418 429.657 101.963 430.204 101.39C430.751 100.791 431.167 100.1 431.454 99.3189C431.767 98.5114 431.923 97.6519 431.923 96.7402C431.923 95.8546 431.767 95.0211 431.454 94.2397C431.167 93.4583 430.738 92.7681 430.165 92.169C429.618 91.5699 428.953 91.101 428.172 90.7624C427.417 90.3978 426.57 90.2154 425.632 90.2154C424.669 90.2154 423.809 90.3978 423.054 90.7624C422.298 91.101 421.647 91.5699 421.1 92.169C420.579 92.742 420.176 93.4323 419.889 94.2397C419.629 95.0211 419.498 95.8546 419.498 96.7402ZM455.007 103.265V106.195H451.452V76.658H455.124V90.4499H455.242C455.867 89.5382 456.739 88.7698 457.859 88.1447C458.979 87.4935 460.308 87.1679 461.844 87.1679C463.225 87.1679 464.475 87.4154 465.595 87.9103C466.741 88.4052 467.718 89.0954 468.526 89.981C469.359 90.8666 469.997 91.9085 470.44 93.1067C470.883 94.2788 471.104 95.5421 471.104 96.8965C471.104 98.251 470.883 99.5273 470.44 100.725C469.997 101.924 469.372 102.965 468.565 103.851C467.757 104.737 466.78 105.44 465.634 105.961C464.488 106.456 463.199 106.703 461.766 106.703C460.438 106.703 459.175 106.417 457.976 105.844C456.778 105.245 455.815 104.385 455.085 103.265H455.007ZM467.314 96.8965C467.314 96.037 467.184 95.2035 466.924 94.396C466.663 93.5885 466.272 92.8722 465.751 92.2471C465.231 91.622 464.579 91.1271 463.798 90.7624C463.043 90.3978 462.157 90.2154 461.141 90.2154C460.203 90.2154 459.344 90.3978 458.563 90.7624C457.807 91.1271 457.156 91.622 456.609 92.2471C456.062 92.8722 455.632 93.5885 455.32 94.396C455.033 95.2035 454.89 96.05 454.89 96.9356C454.89 97.8212 455.033 98.6677 455.32 99.4752C455.632 100.283 456.062 100.999 456.609 101.624C457.156 102.223 457.807 102.705 458.563 103.07C459.344 103.434 460.203 103.617 461.141 103.617C462.157 103.617 463.043 103.434 463.798 103.07C464.579 102.679 465.231 102.171 465.751 101.546C466.272 100.921 466.663 100.204 466.924 99.397C467.184 98.5896 467.314 97.7561 467.314 96.8965ZM483.245 102.21H483.323L488.441 87.6759H492.349L483.362 110.571C483.05 111.353 482.711 112.043 482.346 112.642C481.982 113.267 481.552 113.788 481.057 114.205C480.562 114.648 479.976 114.986 479.299 115.221C478.648 115.455 477.866 115.572 476.955 115.572C476.564 115.572 476.16 115.546 475.744 115.494C475.353 115.468 474.949 115.403 474.532 115.299L474.884 112.056C475.509 112.264 476.121 112.368 476.72 112.368C477.684 112.368 478.4 112.095 478.869 111.548C479.338 111.027 479.768 110.272 480.158 109.282L481.331 106.195L473.399 87.6759H477.502L483.245 102.21Z" fill="white"/>
</svg>
