<svg width="48" height="69" viewBox="0 0 48 69" fill="none" xmlns="http://www.w3.org/2000/svg">
<path d="M0 12.8013C0 5.73254 5.70776 0 12.746 0H34.6191C41.6574 0 47.3651 5.73254 47.3651 12.8013C47.3651 17.2778 45.0767 21.2197 41.6174 23.5047C45.0767 25.7897 47.3651 29.7317 47.3651 34.2081C47.3651 41.2769 41.6574 47.0095 34.6191 47.0095H34.3397C31.0401 47.0095 28.0332 45.7534 25.7714 43.6822V55.4813C25.7714 62.6437 19.9173 68.4163 12.8125 68.4163C5.78759 68.4163 0 62.6971 0 55.615C0 51.1385 2.28843 47.1966 5.74768 44.9116C2.28843 42.6266 0 38.6846 0 34.2081C0 29.7317 2.28843 25.7897 5.74768 23.5047C2.28843 21.2197 0 17.2778 0 12.8013ZM21.5937 25.6027H12.746C8.0095 25.6027 4.17771 29.4511 4.17771 34.2081C4.17771 38.9385 7.98289 42.7869 12.6928 42.8136H21.5937V25.6027ZM25.7714 34.2081C25.7714 38.9652 29.6032 42.8136 34.3397 42.8136H34.6191C39.3556 42.8136 43.1874 38.9652 43.1874 34.2081C43.1874 29.4511 39.3556 25.6027 34.6191 25.6027H34.3397C29.6032 25.6027 25.7714 29.4511 25.7714 34.2081ZM12.746 47.0095H12.6928C7.98289 47.0362 4.17771 50.8846 4.17771 55.615C4.17771 60.3453 8.06272 64.2204 12.8125 64.2204C17.6422 64.2204 21.5937 60.2919 21.5937 55.468V46.9961H12.746V47.0095ZM12.746 4.19584C8.0095 4.19584 4.17771 8.04426 4.17771 12.8013C4.17771 17.5584 8.0095 21.4068 12.746 21.4068H21.5937V4.19584H12.746ZM25.7714 21.4068H34.6191C39.3556 21.4068 43.1874 17.5584 43.1874 12.8013C43.1874 8.04426 39.3556 4.19584 34.6191 4.19584H25.7714V21.4068Z" fill="white"/>
</svg>
