<svg width="154" height="57" viewBox="0 0 154 57" fill="none" xmlns="http://www.w3.org/2000/svg">
<rect width="154" height="57" rx="7" fill="#2C2C2C"/>
<g clip-path="url(#clip0_3330_2005)">
<rect x="5" y="5" width="46" height="46" rx="2" fill="#D9D9D9"/>
<rect x="5" y="5" width="6.57143" height="6.57143" fill="#BB945C"/>
<rect x="5" y="5" width="6.57143" height="6.57143" fill="white" fill-opacity="0.3"/>
<rect x="5.15" y="5.15" width="6.27143" height="6.27143" stroke="#727272" stroke-opacity="0.4" stroke-width="0.3"/>
<rect x="5" y="18.1445" width="6.57143" height="6.57143" fill="#BB945C"/>
<rect x="5.15" y="18.2945" width="6.27143" height="6.27143" stroke="#727272" stroke-opacity="0.4" stroke-width="0.3"/>
<rect x="5" y="31.2891" width="6.57143" height="6.57143" fill="#BB945C"/>
<rect x="5.15" y="31.4391" width="6.27143" height="6.27143" stroke="#727272" stroke-opacity="0.4" stroke-width="0.3"/>
<rect x="5" y="44.4336" width="6.57143" height="6.57143" fill="#BB945C"/>
<rect x="5.15" y="44.5836" width="6.27143" height="6.27143" stroke="#727272" stroke-opacity="0.4" stroke-width="0.3"/>
<rect x="5" y="11.5723" width="6.57143" height="6.57143" fill="#BB945C"/>
<rect x="5.15" y="11.7223" width="6.27143" height="6.27143" stroke="#727272" stroke-opacity="0.4" stroke-width="0.3"/>
<rect x="5" y="24.7168" width="6.57143" height="6.57143" fill="#BB945C"/>
<rect x="5.15" y="24.8668" width="6.27143" height="6.27143" stroke="#727272" stroke-opacity="0.4" stroke-width="0.3"/>
<rect x="5" y="37.8613" width="6.57143" height="6.57143" fill="#BB945C"/>
<rect x="5.15" y="38.0113" width="6.27143" height="6.27143" stroke="#727272" stroke-opacity="0.4" stroke-width="0.3"/>
<rect x="11.5713" y="5" width="6.57143" height="6.57143" fill="#BB945C"/>
<rect x="11.5713" y="5" width="6.57143" height="6.57143" fill="white" fill-opacity="0.3"/>
<rect x="11.7213" y="5.15" width="6.27143" height="6.27143" stroke="#727272" stroke-opacity="0.4" stroke-width="0.3"/>
<rect x="11.5713" y="18.1445" width="6.57143" height="6.57143" fill="#BB945C"/>
<rect x="11.7213" y="18.2945" width="6.27143" height="6.27143" stroke="#727272" stroke-opacity="0.4" stroke-width="0.3"/>
<rect x="11.5713" y="31.2891" width="6.57143" height="6.57143" fill="#BB945C"/>
<rect x="11.7213" y="31.4391" width="6.27143" height="6.27143" stroke="#727272" stroke-opacity="0.4" stroke-width="0.3"/>
<rect x="11.5713" y="44.4336" width="6.57143" height="6.57143" fill="#BB945C"/>
<rect x="11.7213" y="44.5836" width="6.27143" height="6.27143" stroke="#727272" stroke-opacity="0.4" stroke-width="0.3"/>
<rect x="11.5713" y="11.5723" width="6.57143" height="6.57143" fill="#CFB48D"/>
<rect x="11.7213" y="11.7223" width="6.27143" height="6.27143" stroke="#727272" stroke-opacity="0.4" stroke-width="0.3"/>
<rect x="11.5713" y="24.7168" width="6.57143" height="6.57143" fill="#BB945C"/>
<rect x="11.7213" y="24.8668" width="6.27143" height="6.27143" stroke="#727272" stroke-opacity="0.4" stroke-width="0.3"/>
<rect x="11.5713" y="37.8613" width="6.57143" height="6.57143" fill="#BB945C"/>
<rect x="11.7213" y="38.0113" width="6.27143" height="6.27143" stroke="#727272" stroke-opacity="0.4" stroke-width="0.3"/>
<rect x="11.5713" y="51.0059" width="6.57143" height="6.57143" fill="#BB945C"/>
<rect x="11.5713" y="51.0059" width="6.57143" height="6.57143" stroke="#BB945C" stroke-width="0.938775"/>
<rect x="11.5713" y="51.0059" width="6.57143" height="6.57143" stroke="black" stroke-opacity="0.1" stroke-width="0.938775"/>
<rect x="18.1426" y="5" width="6.57143" height="6.57143" fill="white"/>
<rect x="18.2926" y="5.15" width="6.27143" height="6.27143" stroke="#727272" stroke-opacity="0.4" stroke-width="0.3"/>
<rect x="18.1426" y="18.1445" width="6.57143" height="6.57143" fill="#BB945C"/>
<rect x="18.2926" y="18.2945" width="6.27143" height="6.27143" stroke="#727272" stroke-opacity="0.4" stroke-width="0.3"/>
<rect x="18.1426" y="31.2891" width="6.57143" height="6.57143" fill="#BB945C"/>
<rect x="18.2926" y="31.4391" width="6.27143" height="6.27143" stroke="#727272" stroke-opacity="0.4" stroke-width="0.3"/>
<rect x="18.1426" y="44.4336" width="6.57143" height="6.57143" fill="#BB945C"/>
<rect x="18.2926" y="44.5836" width="6.27143" height="6.27143" stroke="#727272" stroke-opacity="0.4" stroke-width="0.3"/>
<rect x="18.1426" y="11.5723" width="6.57143" height="6.57143" fill="#BB945C"/>
<rect x="18.1426" y="11.5723" width="6.57143" height="6.57143" fill="white" fill-opacity="0.3"/>
<rect x="18.2926" y="11.7223" width="6.27143" height="6.27143" stroke="#727272" stroke-opacity="0.4" stroke-width="0.3"/>
<rect x="18.1426" y="24.7168" width="6.57143" height="6.57143" fill="#BB945C"/>
<rect x="18.2926" y="24.8668" width="6.27143" height="6.27143" stroke="#727272" stroke-opacity="0.4" stroke-width="0.3"/>
<rect x="18.1426" y="37.8613" width="6.57143" height="6.57143" fill="#BB945C"/>
<rect x="18.2926" y="38.0113" width="6.27143" height="6.27143" stroke="#727272" stroke-opacity="0.4" stroke-width="0.3"/>
<rect x="24.7139" y="5" width="6.57143" height="6.57143" fill="white"/>
<rect x="24.8639" y="5.15" width="6.27143" height="6.27143" stroke="#727272" stroke-opacity="0.4" stroke-width="0.3"/>
<rect x="24.7139" y="18.1445" width="6.57143" height="6.57143" fill="#BB945C"/>
<rect x="24.7139" y="18.1445" width="6.57143" height="6.57143" fill="white" fill-opacity="0.3"/>
<rect x="24.8639" y="18.2945" width="6.27143" height="6.27143" stroke="#727272" stroke-opacity="0.4" stroke-width="0.3"/>
<rect x="24.7139" y="31.2891" width="6.57143" height="6.57143" fill="#BB945C"/>
<rect x="24.8639" y="31.4391" width="6.27143" height="6.27143" stroke="#727272" stroke-opacity="0.4" stroke-width="0.3"/>
<rect x="24.7139" y="44.4336" width="6.57143" height="6.57143" fill="#BB945C"/>
<rect x="24.8639" y="44.5836" width="6.27143" height="6.27143" stroke="#727272" stroke-opacity="0.4" stroke-width="0.3"/>
<rect x="24.7139" y="11.5723" width="6.57143" height="6.57143" fill="#CFB48D"/>
<rect x="24.7139" y="11.5723" width="6.57143" height="6.57143" fill="white" fill-opacity="0.7"/>
<rect x="24.8639" y="11.7223" width="6.27143" height="6.27143" stroke="#727272" stroke-opacity="0.4" stroke-width="0.3"/>
<rect x="24.7139" y="37.8613" width="6.57143" height="6.57143" fill="#BB945C"/>
<rect x="24.8639" y="38.0113" width="6.27143" height="6.27143" stroke="#727272" stroke-opacity="0.4" stroke-width="0.3"/>
<rect x="31.2852" y="5" width="6.57143" height="6.57143" fill="white"/>
<rect x="31.4352" y="5.15" width="6.27143" height="6.27143" stroke="#727272" stroke-opacity="0.4" stroke-width="0.3"/>
<rect x="31.2852" y="18.1445" width="6.57143" height="6.57143" fill="white"/>
<rect x="31.4352" y="18.2945" width="6.27143" height="6.27143" stroke="#727272" stroke-opacity="0.4" stroke-width="0.3"/>
<rect x="31.2852" y="31.2891" width="6.57143" height="6.57143" fill="#BB945C"/>
<rect x="31.4352" y="31.4391" width="6.27143" height="6.27143" stroke="#727272" stroke-opacity="0.4" stroke-width="0.3"/>
<rect x="31.2852" y="44.4336" width="6.57143" height="6.57143" fill="#BB945C"/>
<rect x="31.4352" y="44.5836" width="6.27143" height="6.27143" stroke="#727272" stroke-opacity="0.4" stroke-width="0.3"/>
<rect x="31.2852" y="11.5723" width="6.57143" height="6.57143" fill="white"/>
<rect x="31.4352" y="11.7223" width="6.27143" height="6.27143" stroke="#727272" stroke-opacity="0.4" stroke-width="0.3"/>
<rect x="31.2852" y="24.7168" width="6.57143" height="6.57143" fill="#BB945C"/>
<rect x="31.2852" y="24.7168" width="6.57143" height="6.57143" fill="white" fill-opacity="0.3"/>
<rect x="31.4352" y="24.8668" width="6.27143" height="6.27143" stroke="#727272" stroke-opacity="0.4" stroke-width="0.3"/>
<rect x="31.2852" y="37.8613" width="6.57143" height="6.57143" fill="#BB945C"/>
<rect x="31.4352" y="38.0113" width="6.27143" height="6.27143" stroke="#727272" stroke-opacity="0.4" stroke-width="0.3"/>
<rect x="37.8564" y="5" width="6.57143" height="6.57143" fill="white"/>
<rect x="38.0064" y="5.15" width="6.27143" height="6.27143" stroke="#727272" stroke-opacity="0.4" stroke-width="0.3"/>
<rect x="37.8564" y="18.1445" width="6.57143" height="6.57143" fill="white"/>
<rect x="38.0064" y="18.2945" width="6.27143" height="6.27143" stroke="#727272" stroke-opacity="0.4" stroke-width="0.3"/>
<rect x="37.8564" y="31.2891" width="6.57143" height="6.57143" fill="#BB945C"/>
<rect x="37.8564" y="31.2891" width="6.57143" height="6.57143" fill="white" fill-opacity="0.3"/>
<rect x="38.0064" y="31.4391" width="6.27143" height="6.27143" stroke="#727272" stroke-opacity="0.4" stroke-width="0.3"/>
<rect x="37.8564" y="44.4336" width="6.57143" height="6.57143" fill="#BB945C"/>
<rect x="38.0064" y="44.5836" width="6.27143" height="6.27143" stroke="#727272" stroke-opacity="0.4" stroke-width="0.3"/>
<rect x="37.8564" y="11.5723" width="6.57143" height="6.57143" fill="white"/>
<rect x="38.0064" y="11.7223" width="6.27143" height="6.27143" stroke="#727272" stroke-opacity="0.4" stroke-width="0.3"/>
<rect x="37.8564" y="24.7168" width="6.57143" height="6.57143" fill="#CFB48D"/>
<rect x="37.8564" y="24.7168" width="6.57143" height="6.57143" fill="white" fill-opacity="0.7"/>
<rect x="38.0064" y="24.8668" width="6.27143" height="6.27143" stroke="#727272" stroke-opacity="0.4" stroke-width="0.3"/>
<rect x="37.8564" y="37.8613" width="6.57143" height="6.57143" fill="#CFB48D"/>
<rect x="38.0064" y="38.0113" width="6.27143" height="6.27143" stroke="#727272" stroke-opacity="0.4" stroke-width="0.3"/>
<rect x="44.4277" y="5" width="6.57143" height="6.57143" fill="white"/>
<rect x="44.5777" y="5.15" width="6.27143" height="6.27143" stroke="#727272" stroke-opacity="0.4" stroke-width="0.3"/>
<rect x="44.4277" y="18.1445" width="6.57143" height="6.57143" fill="white"/>
<rect x="44.5777" y="18.2945" width="6.27143" height="6.27143" stroke="#727272" stroke-opacity="0.4" stroke-width="0.3"/>
<rect x="44.4277" y="31.2891" width="6.57143" height="6.57143" fill="white"/>
<rect x="44.5777" y="31.4391" width="6.27143" height="6.27143" stroke="#727272" stroke-opacity="0.4" stroke-width="0.3"/>
<rect x="44.4277" y="44.4336" width="6.57143" height="6.57143" fill="#BB945C"/>
<rect x="44.4277" y="44.4336" width="6.57143" height="6.57143" fill="white" fill-opacity="0.3"/>
<rect x="44.5777" y="44.5836" width="6.27143" height="6.27143" stroke="#727272" stroke-opacity="0.4" stroke-width="0.3"/>
<rect x="44.4277" y="11.5723" width="6.57143" height="6.57143" fill="white"/>
<rect x="44.5777" y="11.7223" width="6.27143" height="6.27143" stroke="#727272" stroke-opacity="0.4" stroke-width="0.3"/>
<rect x="44.4277" y="24.7168" width="6.57143" height="6.57143" fill="white"/>
<rect x="44.5777" y="24.8668" width="6.27143" height="6.27143" stroke="#727272" stroke-opacity="0.4" stroke-width="0.3"/>
<rect x="44.4277" y="37.8613" width="6.57143" height="6.57143" fill="#BB945C"/>
<rect x="44.4277" y="37.8613" width="6.57143" height="6.57143" fill="white" fill-opacity="0.3"/>
<rect x="44.5777" y="38.0113" width="6.27143" height="6.27143" stroke="#727272" stroke-opacity="0.4" stroke-width="0.3"/>
<rect x="24.7139" y="24.7168" width="6.57143" height="6.57143" rx="1" fill="#BB945C" stroke="#2C2C2C" stroke-width="0.938775"/>
<rect x="24.2445" y="24.2474" width="7.5102" height="7.5102" rx="1.46939" stroke="white" stroke-width="0.938775"/>
</g>
<rect x="63" y="12" width="15" height="15" rx="4" fill="#BB945C"/>
<path d="M83.2782 20.9446H82.4385V20.1608H83.3808L83.5488 19.0226H82.7091V18.2389H83.6514L83.9313 16.2889H84.7524L84.4725 18.2389H85.4334L85.7133 16.2889H86.5251L86.2452 18.2389H87.0849V19.0226H86.1332L85.9746 20.1608H86.8143V20.9446H85.8813L85.5921 22.8945H84.7803L85.0602 20.9446H84.0899L83.81 22.8945H82.9983L83.2782 20.9446ZM84.3605 19.0226L84.2019 20.1608H85.1629L85.3215 19.0226H84.3605ZM93.0168 17.8377C92.8427 17.6013 92.6156 17.4303 92.3357 17.3245C92.0558 17.2126 91.7822 17.1566 91.5147 17.1566C91.1726 17.1566 90.8616 17.2188 90.5817 17.3432C90.3018 17.4676 90.0592 17.6386 89.854 17.8563C89.6549 18.074 89.4994 18.3291 89.3875 18.6214C89.2817 18.9137 89.2289 19.231 89.2289 19.5731C89.2289 19.9338 89.2817 20.2635 89.3875 20.562C89.4932 20.8606 89.6425 21.1187 89.8353 21.3364C90.0343 21.5479 90.2707 21.7127 90.5444 21.8309C90.8181 21.9491 91.126 22.0082 91.4681 22.0082C91.8226 22.0082 92.1367 21.9398 92.4104 21.8029C92.6841 21.6599 92.9049 21.4733 93.0728 21.2431L94.0151 21.9056C93.7228 22.2725 93.3652 22.5587 92.9422 22.7639C92.5192 22.963 92.0247 23.0625 91.4587 23.0625C90.9425 23.0625 90.4666 22.9785 90.0312 22.8106C89.6021 22.6364 89.232 22.3969 88.921 22.0922C88.61 21.7812 88.3674 21.4142 88.1932 20.9912C88.0191 20.562 87.932 20.0893 87.932 19.5731C87.932 19.0444 88.0222 18.5685 88.2026 18.1456C88.3892 17.7164 88.6411 17.3525 88.9583 17.054C89.2817 16.7554 89.6611 16.5253 90.0965 16.3635C90.5319 16.2018 91.0047 16.121 91.5147 16.121C91.7262 16.121 91.947 16.1427 92.1771 16.1863C92.4073 16.2236 92.6281 16.2858 92.8396 16.3729C93.051 16.4537 93.2501 16.5564 93.4367 16.6808C93.6233 16.8052 93.7819 16.9544 93.9125 17.1286L93.0168 17.8377ZM94.6616 21.8682L97.2087 19.3678C97.414 19.1688 97.5757 18.9697 97.6939 18.7707C97.8183 18.5654 97.8805 18.3322 97.8805 18.0709C97.8805 17.7599 97.7778 17.5142 97.5726 17.3339C97.3735 17.1473 97.1247 17.054 96.8262 17.054C96.509 17.054 96.2539 17.1628 96.0611 17.3805C95.8683 17.592 95.7501 17.8594 95.7066 18.1829L94.615 18.0149C94.6461 17.7413 94.7238 17.4894 94.8482 17.2592C94.9726 17.0291 95.1312 16.83 95.324 16.6621C95.5169 16.4942 95.7408 16.3635 95.9958 16.2702C96.257 16.1707 96.5401 16.121 96.8448 16.121C97.131 16.121 97.4046 16.1614 97.6659 16.2422C97.9333 16.3231 98.1697 16.4475 98.375 16.6154C98.5802 16.7772 98.7419 16.9793 98.8601 17.2219C98.9845 17.4583 99.0467 17.735 99.0467 18.0523C99.0467 18.2637 99.0187 18.4628 98.9627 18.6494C98.9068 18.8298 98.829 19.0008 98.7295 19.1625C98.6362 19.3243 98.5242 19.4798 98.3936 19.629C98.2692 19.7721 98.1324 19.912 97.9831 20.0489L96.0798 21.8682H99.056V22.8945H94.6616V21.8682ZM101.28 22.8945L102.978 20.4407L102.969 20.4314C102.875 20.475 102.76 20.5061 102.623 20.5247C102.493 20.5434 102.371 20.5527 102.26 20.5527C101.967 20.5527 101.693 20.4998 101.438 20.3941C101.183 20.2821 100.96 20.1329 100.767 19.9463C100.574 19.7534 100.422 19.5295 100.31 19.2745C100.204 19.0133 100.151 18.7334 100.151 18.4348C100.151 18.0865 100.213 17.7693 100.338 17.4831C100.462 17.197 100.63 16.9544 100.841 16.7554C101.059 16.5501 101.314 16.3946 101.606 16.2889C101.905 16.1769 102.222 16.121 102.558 16.121C102.9 16.121 103.217 16.18 103.51 16.2982C103.808 16.4102 104.066 16.5688 104.284 16.7741C104.502 16.9793 104.67 17.2219 104.788 17.5018C104.912 17.7755 104.975 18.0709 104.975 18.3881C104.975 18.5747 104.959 18.752 104.928 18.92C104.897 19.0817 104.85 19.2403 104.788 19.3958C104.732 19.5451 104.66 19.6975 104.573 19.853C104.492 20.0085 104.399 20.1702 104.293 20.3381L102.642 22.8945H101.28ZM103.836 18.3602C103.836 18.186 103.805 18.0212 103.743 17.8657C103.687 17.7102 103.603 17.5733 103.491 17.4551C103.379 17.3307 103.245 17.2343 103.09 17.1659C102.934 17.0913 102.76 17.054 102.567 17.054C102.188 17.054 101.88 17.1784 101.644 17.4272C101.414 17.6697 101.299 17.987 101.299 18.3788C101.299 18.5654 101.327 18.7396 101.382 18.9013C101.445 19.0568 101.532 19.1905 101.644 19.3025C101.756 19.4144 101.886 19.5046 102.036 19.5731C102.191 19.6353 102.362 19.6664 102.549 19.6664C102.735 19.6664 102.906 19.6353 103.062 19.5731C103.224 19.5109 103.36 19.4238 103.472 19.3118C103.591 19.1936 103.681 19.0537 103.743 18.892C103.805 18.7302 103.836 18.553 103.836 18.3602ZM106.051 21.8682L108.598 19.3678C108.803 19.1688 108.965 18.9697 109.083 18.7707C109.207 18.5654 109.27 18.3322 109.27 18.0709C109.27 17.7599 109.167 17.5142 108.962 17.3339C108.763 17.1473 108.514 17.054 108.215 17.054C107.898 17.054 107.643 17.1628 107.45 17.3805C107.257 17.592 107.139 17.8594 107.096 18.1829L106.004 18.0149C106.035 17.7413 106.113 17.4894 106.237 17.2592C106.362 17.0291 106.52 16.83 106.713 16.6621C106.906 16.4942 107.13 16.3635 107.385 16.2702C107.646 16.1707 107.929 16.121 108.234 16.121C108.52 16.121 108.794 16.1614 109.055 16.2422C109.322 16.3231 109.559 16.4475 109.764 16.6154C109.969 16.7772 110.131 16.9793 110.249 17.2219C110.374 17.4583 110.436 17.735 110.436 18.0523C110.436 18.2637 110.408 18.4628 110.352 18.6494C110.296 18.8298 110.218 19.0008 110.119 19.1625C110.025 19.3243 109.913 19.4798 109.783 19.629C109.658 19.7721 109.522 19.912 109.372 20.0489L107.469 21.8682H110.445V22.8945H106.051V21.8682ZM115.813 17.2965H113.117L113.052 18.724C113.157 18.6929 113.282 18.6712 113.425 18.6587C113.574 18.6463 113.708 18.6401 113.826 18.6401C114.149 18.6401 114.448 18.6867 114.722 18.78C115.002 18.8733 115.244 19.0101 115.449 19.1905C115.655 19.3647 115.813 19.5824 115.925 19.8436C116.043 20.0986 116.102 20.3941 116.102 20.73C116.102 21.097 116.037 21.4266 115.907 21.719C115.782 22.0051 115.611 22.2477 115.393 22.4467C115.176 22.6457 114.921 22.7981 114.628 22.9039C114.336 23.0096 114.025 23.0625 113.695 23.0625C113.142 23.0625 112.675 22.935 112.296 22.6799C111.916 22.4187 111.64 22.0642 111.465 21.6163L112.482 21.2431C112.576 21.5044 112.731 21.7158 112.949 21.8776C113.167 22.0331 113.425 22.1108 113.723 22.1108C113.891 22.1108 114.05 22.0828 114.199 22.0268C114.348 21.9709 114.479 21.89 114.591 21.7843C114.703 21.6785 114.79 21.5479 114.852 21.3924C114.921 21.2307 114.955 21.0503 114.955 20.8513C114.955 20.5962 114.911 20.3848 114.824 20.2168C114.737 20.0489 114.622 19.9152 114.479 19.8156C114.342 19.7099 114.187 19.6384 114.013 19.601C113.838 19.5575 113.661 19.5357 113.481 19.5357C113.356 19.5357 113.223 19.5451 113.08 19.5637C112.943 19.5824 112.806 19.6104 112.669 19.6477C112.538 19.6788 112.408 19.7161 112.277 19.7597C112.153 19.8032 112.041 19.8498 111.941 19.8996L112.053 16.2889H115.813V17.2965ZM117.44 21.8682L119.987 19.3678C120.192 19.1688 120.354 18.9697 120.472 18.7707C120.597 18.5654 120.659 18.3322 120.659 18.0709C120.659 17.7599 120.556 17.5142 120.351 17.3339C120.152 17.1473 119.903 17.054 119.604 17.054C119.287 17.054 119.032 17.1628 118.839 17.3805C118.647 17.592 118.528 17.8594 118.485 18.1829L117.393 18.0149C117.424 17.7413 117.502 17.4894 117.627 17.2592C117.751 17.0291 117.91 16.83 118.102 16.6621C118.295 16.4942 118.519 16.3635 118.774 16.2702C119.035 16.1707 119.318 16.121 119.623 16.121C119.909 16.121 120.183 16.1614 120.444 16.2422C120.712 16.3231 120.948 16.4475 121.153 16.6154C121.359 16.7772 121.52 16.9793 121.638 17.2219C121.763 17.4583 121.825 17.735 121.825 18.0523C121.825 18.2637 121.797 18.4628 121.741 18.6494C121.685 18.8298 121.607 19.0008 121.508 19.1625C121.415 19.3243 121.303 19.4798 121.172 19.629C121.048 19.7721 120.911 19.912 120.761 20.0489L118.858 21.8682H121.834V22.8945H117.44V21.8682Z" fill="white"/>
<path d="M83.52 43.088C83.424 43.232 83.3067 43.368 83.168 43.496C83.0347 43.624 82.8773 43.736 82.696 43.832C82.52 43.928 82.3227 44.0027 82.104 44.056C81.8907 44.1147 81.656 44.144 81.4 44.144C80.9733 44.144 80.5787 44.0693 80.216 43.92C79.8533 43.7707 79.5413 43.5653 79.28 43.304C79.0187 43.0373 78.8133 42.7227 78.664 42.36C78.52 41.9973 78.448 41.6 78.448 41.168C78.448 40.736 78.5227 40.3387 78.672 39.976C78.8213 39.6133 79.0267 39.3013 79.288 39.04C79.5547 38.7733 79.8667 38.5653 80.224 38.416C80.5867 38.2667 80.9787 38.192 81.4 38.192C81.608 38.192 81.8107 38.2133 82.008 38.256C82.2107 38.2987 82.4 38.36 82.576 38.44C82.752 38.5147 82.912 38.608 83.056 38.72C83.2 38.8267 83.32 38.9493 83.416 39.088L82.936 39.44C82.8773 39.3493 82.7973 39.2587 82.696 39.168C82.6 39.0773 82.4853 38.9973 82.352 38.928C82.2187 38.8587 82.072 38.8027 81.912 38.76C81.7573 38.7173 81.5893 38.696 81.408 38.696C81.04 38.696 80.7093 38.7627 80.416 38.896C80.128 39.0293 79.8827 39.2107 79.68 39.44C79.4773 39.664 79.3227 39.9253 79.216 40.224C79.1093 40.5227 79.056 40.8373 79.056 41.168C79.056 41.4987 79.1093 41.8133 79.216 42.112C79.328 42.4107 79.4853 42.6747 79.688 42.904C79.8907 43.128 80.136 43.3067 80.424 43.44C80.7173 43.5733 81.0453 43.64 81.408 43.64C81.7333 43.64 82.0427 43.5733 82.336 43.44C82.6293 43.3067 82.8747 43.0933 83.072 42.8L83.52 43.088ZM85.0378 44H84.4938V37.952H85.0378V44ZM87.0454 44H86.5014V40.256H87.0454V44ZM87.1574 38.816C87.1574 38.928 87.1174 39.0213 87.0374 39.096C86.9574 39.1653 86.8694 39.2 86.7734 39.2C86.6774 39.2 86.5894 39.1653 86.5094 39.096C86.4294 39.0213 86.3894 38.928 86.3894 38.816C86.3894 38.704 86.4294 38.6133 86.5094 38.544C86.5894 38.4693 86.6774 38.432 86.7734 38.432C86.8694 38.432 86.9574 38.4693 87.0374 38.544C87.1174 38.6133 87.1574 38.704 87.1574 38.816ZM91.1894 41.112C91.0988 40.968 90.9654 40.8507 90.7894 40.76C90.6188 40.664 90.4321 40.616 90.2294 40.616C90.0108 40.616 89.8134 40.656 89.6374 40.736C89.4614 40.8107 89.3094 40.9173 89.1814 41.056C89.0588 41.1893 88.9628 41.3493 88.8934 41.536C88.8294 41.7173 88.7974 41.9147 88.7974 42.128C88.7974 42.3413 88.8294 42.5387 88.8934 42.72C88.9628 42.9013 89.0588 43.0613 89.1814 43.2C89.3041 43.3333 89.4534 43.44 89.6294 43.52C89.8054 43.5947 90.0028 43.632 90.2214 43.632C90.4614 43.632 90.6641 43.5867 90.8294 43.496C90.9948 43.4053 91.1308 43.288 91.2374 43.144L91.6454 43.448C91.4854 43.6453 91.2881 43.8027 91.0534 43.92C90.8241 44.0373 90.5468 44.096 90.2214 44.096C89.9174 44.096 89.6428 44.048 89.3974 43.952C89.1521 43.8507 88.9414 43.712 88.7654 43.536C88.5948 43.36 88.4614 43.152 88.3654 42.912C88.2694 42.672 88.2214 42.4107 88.2214 42.128C88.2214 41.8453 88.2694 41.584 88.3654 41.344C88.4614 41.104 88.5948 40.896 88.7654 40.72C88.9414 40.544 89.1521 40.408 89.3974 40.312C89.6428 40.2107 89.9174 40.16 90.2214 40.16C90.4721 40.16 90.7254 40.216 90.9814 40.328C91.2428 40.4347 91.4534 40.5947 91.6134 40.808L91.1894 41.112ZM93.0534 41.944H93.0774L94.8054 40.256H95.5894L93.7014 41.968L95.7814 44H94.9814L93.0774 42.032H93.0534V44H92.5094V37.952H93.0534V41.944ZM100.26 40.712H99.2036V42.896C99.2036 43.0347 99.2169 43.1493 99.2436 43.24C99.2702 43.3307 99.3076 43.4027 99.3556 43.456C99.4089 43.504 99.4702 43.5387 99.5396 43.56C99.6089 43.576 99.6836 43.584 99.7636 43.584C99.8382 43.584 99.9156 43.5733 99.9956 43.552C100.081 43.5307 100.161 43.5013 100.236 43.464L100.26 43.936C100.164 43.9733 100.062 44 99.9556 44.016C99.8542 44.0373 99.7422 44.048 99.6196 44.048C99.5182 44.048 99.4116 44.0347 99.2996 44.008C99.1876 43.9813 99.0836 43.9307 98.9876 43.856C98.8916 43.7813 98.8116 43.68 98.7476 43.552C98.6889 43.424 98.6596 43.256 98.6596 43.048V40.712H97.8836V40.256H98.6596V39.2H99.2036V40.256H100.26V40.712ZM104.831 42.128C104.831 42.4107 104.78 42.672 104.679 42.912C104.583 43.152 104.447 43.36 104.271 43.536C104.095 43.712 103.884 43.8507 103.639 43.952C103.393 44.048 103.124 44.096 102.831 44.096C102.543 44.096 102.276 44.048 102.031 43.952C101.785 43.8507 101.575 43.712 101.399 43.536C101.223 43.36 101.084 43.152 100.983 42.912C100.887 42.672 100.839 42.4107 100.839 42.128C100.839 41.8453 100.887 41.584 100.983 41.344C101.084 41.104 101.223 40.896 101.399 40.72C101.575 40.544 101.785 40.408 102.031 40.312C102.276 40.2107 102.543 40.16 102.831 40.16C103.124 40.16 103.393 40.2107 103.639 40.312C103.884 40.408 104.095 40.544 104.271 40.72C104.447 40.896 104.583 41.104 104.679 41.344C104.78 41.584 104.831 41.8453 104.831 42.128ZM104.255 42.128C104.255 41.92 104.22 41.7253 104.151 41.544C104.087 41.3573 103.993 41.1973 103.871 41.064C103.748 40.9253 103.599 40.816 103.423 40.736C103.247 40.656 103.049 40.616 102.831 40.616C102.612 40.616 102.415 40.656 102.239 40.736C102.068 40.816 101.921 40.9253 101.799 41.064C101.676 41.1973 101.58 41.3573 101.511 41.544C101.447 41.7253 101.415 41.92 101.415 42.128C101.415 42.336 101.447 42.5333 101.511 42.72C101.58 42.9013 101.676 43.0613 101.799 43.2C101.921 43.3333 102.068 43.44 102.239 43.52C102.415 43.5947 102.612 43.632 102.831 43.632C103.049 43.632 103.247 43.5947 103.423 43.52C103.599 43.44 103.748 43.3333 103.871 43.2C103.993 43.0613 104.087 42.9013 104.151 42.72C104.22 42.5333 104.255 42.336 104.255 42.128ZM109.993 41.144C109.913 40.9893 109.791 40.864 109.625 40.768C109.465 40.6667 109.281 40.616 109.073 40.616C108.977 40.616 108.881 40.6267 108.785 40.648C108.689 40.6693 108.604 40.704 108.529 40.752C108.455 40.8 108.393 40.8613 108.345 40.936C108.303 41.0107 108.281 41.0987 108.281 41.2C108.281 41.376 108.353 41.512 108.497 41.608C108.641 41.6987 108.868 41.776 109.177 41.84C109.62 41.9307 109.945 42.064 110.153 42.24C110.367 42.4107 110.473 42.6427 110.473 42.936C110.473 43.1493 110.431 43.3307 110.345 43.48C110.265 43.624 110.159 43.744 110.025 43.84C109.892 43.9307 109.74 43.9947 109.569 44.032C109.404 44.0747 109.236 44.096 109.065 44.096C108.783 44.096 108.508 44.0373 108.241 43.92C107.975 43.8027 107.756 43.6187 107.585 43.368L108.017 43.048C108.113 43.2133 108.255 43.352 108.441 43.464C108.628 43.576 108.833 43.632 109.057 43.632C109.175 43.632 109.287 43.6213 109.393 43.6C109.5 43.5787 109.593 43.5413 109.673 43.488C109.753 43.4347 109.817 43.368 109.865 43.288C109.913 43.2027 109.937 43.0987 109.937 42.976C109.937 42.7787 109.841 42.632 109.649 42.536C109.463 42.4347 109.191 42.3413 108.833 42.256C108.721 42.2293 108.601 42.1973 108.473 42.16C108.351 42.1173 108.236 42.0587 108.129 41.984C108.023 41.904 107.935 41.8053 107.865 41.688C107.796 41.5707 107.761 41.424 107.761 41.248C107.761 41.056 107.799 40.8933 107.873 40.76C107.948 40.6213 108.047 40.5093 108.169 40.424C108.297 40.3333 108.441 40.2667 108.601 40.224C108.761 40.1813 108.927 40.16 109.097 40.16C109.359 40.16 109.612 40.2187 109.857 40.336C110.103 40.4533 110.287 40.6187 110.409 40.832L109.993 41.144ZM113.916 41.584C113.916 41.2587 113.831 41.016 113.66 40.856C113.489 40.696 113.241 40.616 112.916 40.616C112.692 40.616 112.484 40.656 112.292 40.736C112.1 40.816 111.937 40.9227 111.804 41.056L111.5 40.696C111.655 40.5413 111.857 40.4133 112.108 40.312C112.364 40.2107 112.652 40.16 112.972 40.16C113.175 40.16 113.364 40.1893 113.54 40.248C113.716 40.3013 113.871 40.384 114.004 40.496C114.137 40.608 114.241 40.7493 114.316 40.92C114.391 41.0907 114.428 41.2907 114.428 41.52V43.16C114.428 43.304 114.433 43.4533 114.444 43.608C114.455 43.7627 114.471 43.8933 114.492 44H114.004C113.988 43.9093 113.975 43.8107 113.964 43.704C113.953 43.5973 113.948 43.4933 113.948 43.392H113.932C113.761 43.6427 113.567 43.824 113.348 43.936C113.135 44.0427 112.876 44.096 112.572 44.096C112.428 44.096 112.279 44.0747 112.124 44.032C111.975 43.9947 111.836 43.9307 111.708 43.84C111.585 43.7493 111.481 43.632 111.396 43.488C111.316 43.344 111.276 43.168 111.276 42.96C111.276 42.672 111.348 42.4453 111.492 42.28C111.641 42.1093 111.839 41.984 112.084 41.904C112.329 41.8187 112.609 41.7653 112.924 41.744C113.244 41.7173 113.575 41.704 113.916 41.704V41.584ZM113.756 42.128C113.532 42.128 113.305 42.1387 113.076 42.16C112.852 42.176 112.647 42.2133 112.46 42.272C112.279 42.3253 112.129 42.4053 112.012 42.512C111.895 42.6187 111.836 42.76 111.836 42.936C111.836 43.0693 111.86 43.1813 111.908 43.272C111.961 43.3627 112.031 43.4373 112.116 43.496C112.201 43.5493 112.295 43.5893 112.396 43.616C112.503 43.6373 112.609 43.648 112.716 43.648C112.908 43.648 113.079 43.616 113.228 43.552C113.377 43.4827 113.503 43.392 113.604 43.28C113.705 43.1627 113.783 43.0293 113.836 42.88C113.889 42.7307 113.916 42.5733 113.916 42.408V42.128H113.756ZM116.365 40.896C116.472 40.6773 116.635 40.5013 116.853 40.368C117.077 40.2293 117.325 40.16 117.597 40.16C117.699 40.16 117.803 40.1707 117.909 40.192C118.021 40.2133 118.128 40.256 118.229 40.32C118.336 40.3787 118.432 40.4587 118.517 40.56C118.608 40.6613 118.685 40.792 118.749 40.952C118.877 40.696 119.051 40.5013 119.269 40.368C119.493 40.2293 119.757 40.16 120.061 40.16C120.536 40.16 120.891 40.3013 121.125 40.584C121.365 40.8667 121.485 41.24 121.485 41.704V44H120.941V41.928C120.941 41.5333 120.867 41.216 120.717 40.976C120.573 40.736 120.325 40.616 119.973 40.616C119.776 40.616 119.608 40.656 119.469 40.736C119.336 40.816 119.227 40.9227 119.141 41.056C119.061 41.184 119.003 41.3307 118.965 41.496C118.928 41.6613 118.909 41.832 118.909 42.008V44H118.365V41.816C118.365 41.6347 118.352 41.4693 118.325 41.32C118.299 41.1707 118.251 41.0453 118.181 40.944C118.117 40.8373 118.027 40.7573 117.909 40.704C117.792 40.6453 117.643 40.616 117.461 40.616C117.333 40.616 117.203 40.6453 117.069 40.704C116.941 40.7627 116.824 40.8533 116.717 40.976C116.616 41.0933 116.533 41.2453 116.469 41.432C116.405 41.6133 116.373 41.8293 116.373 42.08V44H115.829V41.08C115.829 40.9787 115.827 40.848 115.821 40.688C115.816 40.528 115.808 40.384 115.797 40.256H116.317C116.328 40.3573 116.336 40.4693 116.341 40.592C116.347 40.7147 116.349 40.816 116.349 40.896H116.365ZM123.436 45.92H122.892V40.256H123.436V40.904H123.46C123.615 40.6587 123.82 40.4747 124.076 40.352C124.337 40.224 124.601 40.16 124.868 40.16C125.161 40.16 125.425 40.2107 125.66 40.312C125.9 40.4133 126.103 40.552 126.268 40.728C126.439 40.904 126.569 41.112 126.66 41.352C126.756 41.592 126.804 41.8507 126.804 42.128C126.804 42.4053 126.756 42.664 126.66 42.904C126.569 43.144 126.439 43.352 126.268 43.528C126.103 43.704 125.9 43.8427 125.66 43.944C125.425 44.0453 125.161 44.096 124.868 44.096C124.601 44.096 124.337 44.0347 124.076 43.912C123.82 43.784 123.615 43.6027 123.46 43.368H123.436V45.92ZM126.228 42.128C126.228 41.92 126.196 41.7253 126.132 41.544C126.068 41.3573 125.975 41.1973 125.852 41.064C125.735 40.9253 125.588 40.816 125.412 40.736C125.236 40.656 125.036 40.616 124.812 40.616C124.604 40.616 124.412 40.656 124.236 40.736C124.06 40.8107 123.908 40.9173 123.78 41.056C123.652 41.1893 123.551 41.3493 123.476 41.536C123.407 41.7173 123.372 41.9147 123.372 42.128C123.372 42.3413 123.407 42.5413 123.476 42.728C123.551 42.9093 123.652 43.0667 123.78 43.2C123.908 43.3333 124.06 43.44 124.236 43.52C124.412 43.5947 124.604 43.632 124.812 43.632C125.036 43.632 125.236 43.5947 125.412 43.52C125.588 43.44 125.735 43.3333 125.852 43.2C125.975 43.0613 126.068 42.9013 126.132 42.72C126.196 42.5333 126.228 42.336 126.228 42.128ZM128.53 44H127.986V37.952H128.53V44ZM132.842 41.84C132.826 41.488 132.711 41.1973 132.498 40.968C132.29 40.7333 131.991 40.616 131.602 40.616C131.42 40.616 131.252 40.6507 131.098 40.72C130.943 40.784 130.807 40.8747 130.69 40.992C130.572 41.104 130.479 41.2347 130.41 41.384C130.34 41.528 130.3 41.68 130.29 41.84H132.842ZM133.394 42.016C133.394 42.0533 133.394 42.0933 133.394 42.136C133.394 42.1787 133.391 42.224 133.386 42.272H130.282C130.287 42.4587 130.324 42.6347 130.394 42.8C130.463 42.9653 130.559 43.1093 130.682 43.232C130.804 43.3547 130.948 43.4533 131.114 43.528C131.279 43.5973 131.458 43.632 131.65 43.632C131.932 43.632 132.175 43.568 132.378 43.44C132.586 43.3067 132.743 43.1547 132.85 42.984L133.258 43.304C133.034 43.5867 132.786 43.7893 132.514 43.912C132.247 44.0347 131.959 44.096 131.65 44.096C131.372 44.096 131.114 44.048 130.874 43.952C130.639 43.8507 130.436 43.712 130.266 43.536C130.095 43.36 129.959 43.152 129.858 42.912C129.762 42.672 129.714 42.4107 129.714 42.128C129.714 41.8453 129.762 41.584 129.858 41.344C129.954 41.104 130.087 40.896 130.258 40.72C130.428 40.544 130.628 40.408 130.858 40.312C131.087 40.2107 131.335 40.16 131.602 40.16C131.895 40.16 132.154 40.2107 132.378 40.312C132.602 40.408 132.788 40.5413 132.938 40.712C133.087 40.8773 133.199 41.072 133.274 41.296C133.354 41.52 133.394 41.76 133.394 42.016Z" fill="#B9B9B9"/>
<path d="M67.0403 39.0922C67.5637 39.0288 67.8172 39.2714 68.1888 39.5677C69.4039 40.5363 70.5797 41.5648 71.7755 42.5551C72.1275 43.0022 72.0615 43.6437 71.6083 43.9973C71.1147 44.3827 70.12 44.1485 69.5136 44.2145C68.5572 44.3184 68.2895 46.5137 66.9254 45.9359C66.2444 45.6477 66.3348 45.0239 66.3 44.4181C66.218 42.9865 66.1501 41.5507 66.0854 40.1117C66.1266 39.6114 66.5387 39.1527 67.0403 39.0919V39.0922ZM67.1355 39.8617C66.9763 39.8871 66.8527 40.0454 66.8527 40.2053C66.8527 40.3961 66.8939 40.6364 66.9016 40.8304C66.9412 41.8274 66.9933 42.8211 67.0461 43.8165C67.0663 44.1974 67.039 44.6784 67.0947 45.0441C67.1259 45.2481 67.3649 45.3166 67.5126 45.176C68.009 44.6063 68.3728 43.7448 69.1452 43.5096C69.7179 43.3355 70.433 43.5334 71.0005 43.4385C71.171 43.4099 71.2885 43.2445 71.1968 43.0849C71.1743 43.046 71.1131 42.9968 71.0778 42.9633C69.9749 41.9158 68.59 41.0186 67.4656 39.9772C67.3527 39.8968 67.2845 39.8379 67.1349 39.862L67.1355 39.8617Z" fill="#B9B9B9"/>
<path d="M63.6674 37.3102C63.7482 37.2934 63.8289 37.2999 63.9081 37.3233C64.0271 37.3584 64.9263 37.8674 65.0344 37.9549C65.3786 38.2341 65.1254 38.7324 64.7078 38.6424C64.3655 38.43 63.8518 38.2415 63.5413 38.0028C63.2997 37.8168 63.3489 37.3761 63.6671 37.3102H63.6674Z" fill="#B9B9B9"/>
<path d="M64.3664 39.5962C64.7405 39.5412 64.9573 40.0125 64.6829 40.275C64.6035 40.351 63.665 40.8207 63.5347 40.8605C63.094 40.995 62.8154 40.4748 63.1435 40.2046L64.3664 39.5962Z" fill="#B9B9B9"/>
<path d="M68.2576 38.2101C68.1031 38.0637 68.1131 37.7661 68.2798 37.6323C68.5596 37.4077 69.132 37.2533 69.4466 37.0439C69.9388 36.9709 70.1386 37.5062 69.7014 37.7803C69.5434 37.879 68.7852 38.2725 68.6359 38.304C68.4979 38.3333 68.3611 38.3082 68.2576 38.2101Z" fill="#B9B9B9"/>
<path d="M66.7482 36.1082C66.8048 36.1619 66.8444 36.2504 66.8528 36.3286C66.8779 36.5605 66.8853 37.2866 66.8512 37.507C66.791 37.8969 66.1617 37.9117 66.0877 37.4787C66.0565 37.2946 66.0569 36.519 66.0877 36.3343C66.1399 36.0232 66.5166 35.8885 66.7479 36.1082H66.7482Z" fill="#B9B9B9"/>
<defs>
<clipPath id="clip0_3330_2005">
<rect x="5" y="5" width="46" height="46" rx="2" fill="white"/>
</clipPath>
</defs>
</svg>
