<svg width="64" height="65" viewBox="0 0 64 65" fill="none" xmlns="http://www.w3.org/2000/svg">
<path d="M64 9.28571C64 4.16406 59.9 0 54.8571 0H9.14286C4.1 0 0 4.16406 0 9.28571V55.7143C0 60.8359 4.1 65 9.14286 65H54.8571C59.9 65 64 60.8359 64 55.7143V9.28571ZM25.8429 59.9074C21.0286 59.9074 18.2429 57.3828 16.8143 54.3214L21.7143 51.3181C22.6571 53.0156 23.5143 54.452 25.5857 54.452C27.5571 54.452 28.8143 53.6685 28.8143 50.6071V29.8449H34.8286V50.6942C34.8286 57.0201 31.1714 59.9074 25.8429 59.9074ZM38.1 53.6685L43 50.7958C44.2857 52.9286 45.9714 54.51 48.9286 54.51C51.4143 54.51 53.0143 53.2478 53.0143 51.4922C53.0143 49.4029 51.3857 48.6629 48.6286 47.4297L47.1286 46.7768C42.7857 44.9051 39.9143 42.5402 39.9143 37.5636C39.9143 32.9788 43.3571 29.4967 48.7143 29.4967C52.5429 29.4967 55.2857 30.846 57.2571 34.3862L52.5714 37.433C51.5429 35.5614 50.4286 34.8214 48.7 34.8214C46.9429 34.8214 45.8286 35.9531 45.8286 37.433C45.8286 39.2612 46.9429 40.0011 49.5286 41.1473L51.0286 41.8002C56.1429 44.0201 59.0143 46.298 59.0143 51.4051C59.0143 56.8895 54.7571 59.9074 49.0571 59.9074C43.4714 59.9074 39.8571 57.2087 38.1 53.6685Z" fill="white"/>
</svg>
