<svg width="318" height="54" viewBox="0 0 318 54" fill="none" xmlns="http://www.w3.org/2000/svg">
<path d="M101.019 7.20605C105.375 2.65134 111.108 -0.455821 118.848 0.0546875C125.945 0.522832 130.964 4.39019 134.645 8.95508C138.199 13.3633 140.907 18.9421 143.247 23.5361C145.764 28.4781 147.835 32.234 150.22 34.5332C151.32 35.5942 152.328 36.1744 153.304 36.4414C154.235 36.6961 155.473 36.7569 157.222 36.2627C161.558 34.7922 163.172 31.6788 165.254 26.4238C167.149 21.6406 169.648 13.9967 177.77 10.5674C181.089 9.16598 184.352 8.68323 187.528 9.15918C190.678 9.63126 193.388 10.9925 195.708 12.7285C200.148 16.0509 203.763 21.2536 206.886 25.8213C210.224 30.7039 213.178 35.1497 216.599 38.4385C219.881 41.5947 223.114 43.2077 226.937 43.0664C231.228 42.9075 234.391 41.0149 237.282 37.7451C240.349 34.2758 242.796 29.623 245.605 24.2949C248.26 19.2612 251.297 13.5035 255.409 9.2041C259.766 4.64961 265.499 1.5433 273.238 2.05371C280.238 2.51548 285.205 6.13144 288.871 10.5566C292.386 14.7998 295.01 20.1722 297.274 24.6455C299.699 29.4367 301.723 33.2129 304.148 35.7061C306.26 37.8757 308.457 38.8741 311.786 38.3525C314.514 37.9252 317.072 39.7897 317.5 42.5176C317.927 45.2456 316.062 47.8039 313.334 48.2314C306.3 49.3337 300.976 46.7859 296.98 42.6797C293.3 38.8966 290.631 33.6653 288.352 29.1611C285.911 24.3391 283.815 20.1268 281.172 16.9365C278.68 13.9283 276.047 12.261 272.58 12.0322C268.343 11.7528 265.361 13.2677 262.636 16.1172C259.666 19.2221 257.25 23.6524 254.451 28.96C251.808 33.973 248.798 39.8164 244.774 44.3682C240.574 49.1193 235.01 52.7734 227.307 53.0586C219.871 53.3336 214.142 49.9482 209.668 45.6465C205.332 41.4774 201.734 36.0049 198.631 31.4658C195.312 26.6119 192.593 22.8881 189.717 20.7354C188.379 19.7342 187.184 19.2204 186.047 19.0498C184.936 18.8833 183.529 18.9898 181.659 19.7793C178.083 21.2893 176.843 24.3235 174.551 30.1084C172.466 35.3705 169.464 42.6628 160.45 45.7275C160.35 45.7641 160.248 45.7996 160.144 45.8301C156.827 46.8005 153.652 46.9034 150.664 46.0859C147.701 45.2752 145.276 43.656 143.28 41.7324C139.473 38.0622 136.696 32.7058 134.337 28.0742C131.801 23.0943 129.606 18.6376 126.859 15.2314C124.239 11.9822 121.56 10.2555 118.189 10.0332C113.952 9.75374 110.971 11.2686 108.245 14.1182C105.275 17.223 102.86 21.6534 100.061 26.9609C97.4168 31.9741 94.4069 37.8183 90.3828 42.3701C86.1824 47.1212 80.6184 50.7756 72.915 51.0605C65.4796 51.3355 59.7511 47.95 55.2773 43.6484C50.9415 39.4793 47.3438 34.0059 44.2402 29.4668C40.9214 24.613 38.2028 20.8891 35.3262 18.7363C33.9883 17.7352 32.7937 17.2204 31.6562 17.0498C30.5452 16.8833 29.1377 16.9916 27.2676 17.7812C22.9546 19.6027 18.5724 24.7368 15.0029 30.3877C13.3076 33.0717 11.9464 35.6268 11.0088 37.5127C10.5417 38.4522 10.183 39.2178 9.94531 39.7402C9.82665 40.0011 9.73843 40.2012 9.68164 40.3311C9.65335 40.3957 9.63247 40.4429 9.62012 40.4717C9.61407 40.4858 9.61053 40.496 9.6084 40.501C9.6075 40.5031 9.60655 40.5046 9.60645 40.5049V40.5029V40.502C8.53277 43.0454 5.60151 44.2371 3.05762 43.1641C0.513579 42.0906 -0.678713 39.1584 0.394531 36.6143L7.02344 39.4111C6.47427 39.1794 5.80837 38.8982 5.00098 38.5576C0.459835 36.642 0.395025 36.6137 0.394531 36.6123L0.395508 36.6104C0.396245 36.6086 0.397421 36.6059 0.398438 36.6035C0.400485 36.5987 0.403182 36.5922 0.40625 36.585C0.412527 36.5702 0.422152 36.5507 0.432617 36.5264C0.453564 36.4776 0.482037 36.409 0.519531 36.3232C0.594747 36.1513 0.703951 35.907 0.84375 35.5996C1.12337 34.9849 1.52975 34.1144 2.05371 33.0605C3.09863 30.9589 4.62501 28.093 6.54785 25.0488C10.2146 19.2438 15.9933 11.6866 23.3779 8.56836C26.6972 7.16687 29.9617 6.68512 33.1377 7.16113C36.2872 7.63324 38.9973 8.99428 41.3174 10.7305C45.757 14.0529 49.372 19.2556 52.4951 23.8232C55.8335 28.7056 58.7879 33.1508 62.208 36.4395C65.4905 39.5957 68.7231 41.2088 72.5459 41.0674C76.8377 40.9085 80.0008 39.016 82.8916 35.7461C85.9587 32.2767 88.405 27.6241 91.2148 22.2959C93.8694 17.2622 96.9061 11.5054 101.019 7.20605Z" fill="#D6B67C"/>
</svg>
