<svg width="59" height="44" viewBox="0 0 59 44" fill="none" xmlns="http://www.w3.org/2000/svg">
<path d="M0 10.5117V43.9503H8.43392V29.8346L25.1573 43.9503H33.517V25.0483H25.1573V31.4892L0 10.5117Z" fill="#293338"/>
<path d="M58.6495 29.5352V33.4179C58.6495 39.2028 53.9456 43.9026 48.1648 43.9026C42.3841 43.9026 37.6802 39.2028 37.6802 33.4179V10.4846C37.6802 9.3458 36.7477 8.41741 35.6047 8.41741C34.4618 8.41741 33.5293 9.3458 33.5293 10.4846H33.521V14.1115H33.5169V21.1508H25.1284V10.4846H25.1201C25.1201 4.70385 29.824 0 35.6047 0C41.3855 0 46.0646 4.67909 46.0894 10.4392V33.4179C46.0894 34.5609 47.0178 35.4893 48.1648 35.4893C49.3119 35.4893 50.2403 34.5609 50.2403 33.4179V29.5352H58.6495Z" fill="#293338"/>
<path d="M58.9997 22.7904C58.9997 20.3076 56.987 18.2949 54.5043 18.2949C52.0215 18.2949 50.0088 20.3076 50.0088 22.7904C50.0088 25.2732 52.0215 27.2859 54.5043 27.2859C56.987 27.2859 58.9997 25.2732 58.9997 22.7904Z" fill="#293338"/>
</svg>
