<svg width="57" height="43" viewBox="0 0 57 43" fill="none" xmlns="http://www.w3.org/2000/svg">
<path d="M31.683 12.862C31.683 15.3007 31.2307 17.3657 30.326 19.057C29.4213 20.709 28.202 22.0463 26.668 23.069C25.134 24.0917 23.364 24.839 21.358 25.311C19.352 25.783 17.2673 26.019 15.104 26.019H10.089V41.772H0V0H15.34C17.6213 0 19.7453 0.235999 21.712 0.707998C23.718 1.14066 25.4487 1.86833 26.904 2.891C28.3987 3.87433 29.559 5.192 30.385 6.844C31.2503 8.45667 31.683 10.4627 31.683 12.862ZM21.594 12.921C21.594 11.9377 21.3973 11.1313 21.004 10.502C20.6107 9.87267 20.0797 9.381 19.411 9.027C18.7423 8.673 17.9753 8.437 17.11 8.319C16.284 8.201 15.4187 8.142 14.514 8.142H10.089V17.995H14.337C15.281 17.995 16.1857 17.9163 17.051 17.759C17.9163 17.6017 18.6833 17.3263 19.352 16.933C20.06 16.5397 20.6107 16.0283 21.004 15.399C21.3973 14.7303 21.594 13.9043 21.594 12.921Z" fill="white"/>
<path d="M51.672 21.063C50.8853 20.3157 49.961 19.6863 48.899 19.175C47.837 18.6637 46.716 18.408 45.536 18.408C44.6314 18.408 43.7857 18.585 42.999 18.939C42.2517 19.293 41.878 19.9027 41.878 20.768C41.878 21.594 42.291 22.184 43.117 22.538C43.9823 22.892 45.359 23.2853 47.247 23.718C48.3484 23.954 49.4497 24.2883 50.551 24.721C51.6917 25.1537 52.7143 25.724 53.619 26.432C54.5237 27.14 55.2514 28.0053 55.802 29.028C56.3527 30.0507 56.628 31.27 56.628 32.686C56.628 34.5347 56.2543 36.108 55.507 37.406C54.7597 38.6647 53.7763 39.6873 52.557 40.474C51.377 41.2607 50.0397 41.831 48.545 42.185C47.0503 42.539 45.5557 42.716 44.061 42.716C41.6617 42.716 39.3017 42.3423 36.981 41.595C34.6997 40.8083 32.792 39.6677 31.258 38.173L36.686 32.45C37.5513 33.394 38.6134 34.1807 39.872 34.81C41.1307 35.4393 42.468 35.754 43.884 35.754C44.6707 35.754 45.4377 35.577 46.185 35.223C46.9717 34.8297 47.365 34.161 47.365 33.217C47.365 32.3123 46.893 31.6437 45.949 31.211C45.005 30.7783 43.53 30.326 41.524 29.854C40.5013 29.618 39.4787 29.3033 38.456 28.91C37.4334 28.5167 36.509 27.9857 35.683 27.317C34.8963 26.6483 34.2473 25.8223 33.736 24.839C33.2247 23.8557 32.969 22.6757 32.969 21.299C32.969 19.529 33.3427 18.0343 34.09 16.815C34.8373 15.5563 35.801 14.5337 36.981 13.747C38.161 12.9603 39.459 12.39 40.875 12.036C42.3303 11.6427 43.766 11.446 45.182 11.446C47.3847 11.446 49.5283 11.8 51.613 12.508C53.737 13.1767 55.5267 14.1993 56.982 15.576L51.672 21.063Z" fill="white"/>
</svg>
